<?xml version="1.0" encoding="utf-8"?>
<!-- Generator: Adobe Illustrator 15.1.0, SVG Export Plug-In . SVG Version: 6.00 Build 0)  -->
<!DOCTYPE svg PUBLIC "-//W3C//DTD SVG 1.1//EN" "http://www.w3.org/Graphics/SVG/1.1/DTD/svg11.dtd">
<svg version="1.1" id="Layer_1" xmlns="http://www.w3.org/2000/svg" xmlns:xlink="http://www.w3.org/1999/xlink" x="0px" y="0px"
	 width="595.28px" height="841.89px" viewBox="0 0 595.28 841.89" enable-background="new 0 0 595.28 841.89" xml:space="preserve">
<linearGradient id="SVGID_1_" gradientUnits="userSpaceOnUse" x1="272.897" y1="466.334" x2="272.897" y2="393.061">
	<stop  offset="0" style="stop-color:#F2C982"/>
	<stop  offset="0.2822" style="stop-color:#F2CF98"/>
	<stop  offset="0.5276" style="stop-color:#FFE69A"/>
	<stop  offset="0.7423" style="stop-color:#FFF1C9"/>
</linearGradient>
<path fill="url(#SVGID_1_)" d="M108.667,466.334c-3.603-1.993-6.295-5.328-8.432-8.818c-1.063-1.769-1.985-3.641-2.633-5.636
	c-0.636-1.989-1.008-4.142-0.694-6.318c0.292-2.172,1.422-4.272,3.066-5.743c0.405-0.374,0.835-0.716,1.281-1.03l1.262-0.871
	l2.482-1.777c3.311-2.395,6.652-4.774,10.058-7.064c13.635-9.095,28.27-17.068,44.212-21.857c7.95-2.386,16.237-3.941,24.654-4.075
	c2.129-0.032,4.142,0.021,6.195,0.041l6.138,0.099l12.275,0.296c8.183,0.237,16.362,0.652,24.527,1.082
	c8.165,0.429,16.308,0.935,24.405,1.131c16.305,0.375,32.639,0.733,48.923,0.673c8.152-0.005,16.261-0.15,24.398-0.545
	c8.138-0.382,16.27-0.831,24.371-1.495c8.082-0.697,16.21-1.542,24.017-3.23c3.91-0.923,7.888-2.003,11.865-2.967
	c3.982-0.974,7.985-1.894,12.02-2.677c8.067-1.515,16.271-2.708,24.542-2.457c4.118,0.156,8.284,0.666,12.189,2.097
	c1.939,0.729,3.802,1.707,5.407,3.016c1.607,1.302,2.928,2.946,3.805,4.793c-0.99-1.79-2.392-3.323-4.034-4.493
	c-1.642-1.178-3.501-2.011-5.422-2.601c-3.854-1.185-7.929-1.481-11.96-1.426c-8.089,0.161-16.116,1.624-24.014,3.471
	c-3.954,0.925-7.887,1.952-11.805,3.053c-3.93,1.091-7.8,2.283-11.808,3.372c-4.06,1.055-8.12,1.753-12.196,2.378
	c-4.074,0.614-8.153,1.115-12.235,1.555c-8.163,0.883-16.337,1.511-24.514,1.985c-8.176,0.515-16.403,0.781-24.588,0.904
	c-16.391,0.203-32.73-0.117-49.092-0.412c-8.236-0.24-16.4-0.788-24.547-1.254c-8.146-0.487-16.285-0.877-24.429-1.237l-12.219-0.47
	l-6.112-0.186c-2.03-0.048-4.102-0.131-6.057-0.128c-7.934,0.04-15.887,1.329-23.629,3.442c-7.751,2.116-15.285,5.089-22.615,8.51
	c-7.333,3.426-14.433,7.387-21.347,11.664c-3.467,2.127-6.877,4.346-10.284,6.599l-2.574,1.684c-0.895,0.58-1.732,1.041-2.437,1.657
	c-1.445,1.206-2.459,2.856-2.817,4.727c-0.372,1.868-0.151,3.869,0.359,5.783c0.515,1.923,1.321,3.783,2.263,5.568
	c0.946,1.787,2.018,3.518,3.297,5.091C105.469,463.799,106.921,465.267,108.667,466.334z"/>
<linearGradient id="SVGID_2_" gradientUnits="userSpaceOnUse" x1="366.6504" y1="407.5874" x2="366.6504" y2="372.2158">
	<stop  offset="0" style="stop-color:#F2C982"/>
	<stop  offset="0.2822" style="stop-color:#F2CF98"/>
	<stop  offset="0.5276" style="stop-color:#FFE69A"/>
	<stop  offset="0.7423" style="stop-color:#FFF1C9"/>
</linearGradient>
<path fill="url(#SVGID_2_)" d="M491.667,402.333c-6.115-0.712-12.213-1.565-18.3-2.496c-6.08-0.969-12.16-1.966-18.213-3.137
	c-6.051-1.179-12.102-2.398-18.107-3.896c-6.007-1.526-11.989-3.101-17.905-5.549l0.192,0.075
	c-10.212-3.301-20.509-6.204-30.942-8.116c-5.214-0.952-10.466-1.619-15.723-1.886c-5.255-0.253-10.513-0.144-15.705,0.455
	l-0.098,0.011l-0.086,0.004c-4.867,0.229-9.835,0.811-14.766,1.462c-4.936,0.68-9.874,1.419-14.801,2.243
	c-4.927,0.827-9.842,1.74-14.74,2.731c-4.901,0.983-9.797,2.001-14.666,3.136c-9.731,2.286-19.422,4.786-28.915,7.912
	c-4.754,1.541-9.439,3.281-14.04,5.233c-4.577,1.992-9.095,4.19-13.22,7.07c3.832-3.268,8.189-5.906,12.662-8.244
	c4.474-2.356,9.124-4.353,13.811-6.233c9.408-3.686,19.045-6.751,28.791-9.366c4.873-1.31,9.764-2.553,14.684-3.672
	c4.923-1.109,9.863-2.138,14.822-3.083c4.96-0.946,9.938-1.813,14.95-2.511c5.02-0.699,10.033-1.331,15.198-1.612l-0.183,0.015
	c5.508-0.697,11.065-0.824,16.567-0.49c5.506,0.319,10.961,1.055,16.339,2.076c10.769,2.038,21.168,5.353,31.39,8.868l0.116,0.04
	l0.076,0.035c5.371,2.459,11.259,4.262,17.105,5.966c5.875,1.675,11.801,3.256,17.762,4.706c5.962,1.452,11.935,2.891,17.933,4.231
	C479.65,399.685,485.652,401.024,491.667,402.333z"/>
<linearGradient id="SVGID_3_" gradientUnits="userSpaceOnUse" x1="128.1665" y1="447.667" x2="128.1665" y2="418.0005">
	<stop  offset="0" style="stop-color:#F2C982"/>
	<stop  offset="0.2822" style="stop-color:#F2CF98"/>
	<stop  offset="0.5276" style="stop-color:#FFE69A"/>
	<stop  offset="0.7423" style="stop-color:#FFF1C9"/>
</linearGradient>
<path fill="url(#SVGID_3_)" d="M104,447.667c2.815-0.947,5.66-1.75,8.508-2.536c2.849-0.782,5.712-1.491,8.576-2.199
	c2.875-0.651,5.739-1.358,8.627-1.943l4.325-0.914l4.34-0.841l-1.121,1.046c0.658-2.26,1.474-4.366,2.398-6.473
	c0.903-2.104,1.969-4.142,3.152-6.109c1.193-1.96,2.542-3.843,4.109-5.531c1.562-1.683,3.365-3.195,5.418-4.166
	c-1.748,1.44-3.159,3.159-4.397,4.979c-1.232,1.827-2.286,3.763-3.239,5.746c-0.96,1.981-1.782,4.029-2.57,6.086
	c-0.758,2.058-1.461,4.188-2.049,6.243l-0.247,0.863l-0.874,0.184l-4.327,0.909l-4.341,0.836c-2.889,0.582-5.803,1.042-8.706,1.557
	c-2.914,0.458-5.828,0.917-8.757,1.301C109.896,447.084,106.962,447.447,104,447.667z"/>
<linearGradient id="SVGID_4_" gradientUnits="userSpaceOnUse" x1="351.3496" y1="467.7471" x2="351.3496" y2="440.334">
	<stop  offset="0" style="stop-color:#F2C982"/>
	<stop  offset="0.2822" style="stop-color:#F2CF98"/>
	<stop  offset="0.5276" style="stop-color:#FFE69A"/>
	<stop  offset="0.7423" style="stop-color:#FFF1C9"/>
</linearGradient>
<path fill="url(#SVGID_4_)" d="M322.667,462c2.333-0.094,4.665-0.117,6.998-0.14c2.333-0.031,4.665-0.036,6.997-0.005
	c4.665,0.049,9.329,0.17,13.99,0.393c4.664,0.197,9.322,0.531,13.981,0.95c2.327,0.235,4.654,0.498,6.98,0.831
	c2.331,0.34,4.645,0.727,6.984,1.453l-1.063,1.25c-0.987-2.098-1.815-4.205-2.549-6.374c-0.735-2.159-1.366-4.359-1.818-6.602
	c-0.464-2.237-0.748-4.525-0.707-6.819c0.041-2.276,0.399-4.627,1.539-6.604c-0.87,2.097-1.016,4.374-0.872,6.587
	c0.162,2.222,0.625,4.41,1.193,6.563c0.59,2.149,1.305,4.267,2.113,6.347c0.818,2.07,1.717,4.14,2.696,6.104l0.902,1.812
	l-1.966-0.562c-2.13-0.608-4.442-0.914-6.719-1.241c-2.289-0.306-4.596-0.546-6.906-0.758c-4.618-0.464-9.258-0.78-13.896-1.14
	l-13.933-0.986c-2.323-0.156-4.647-0.333-6.971-0.518L322.667,462z"/>
<linearGradient id="SVGID_5_" gradientUnits="userSpaceOnUse" x1="258.167" y1="469" x2="258.167" y2="410.4854">
	<stop  offset="0" style="stop-color:#F2C982"/>
	<stop  offset="0.2822" style="stop-color:#F2CF98"/>
	<stop  offset="0.5276" style="stop-color:#FFE69A"/>
	<stop  offset="0.7423" style="stop-color:#FFF1C9"/>
</linearGradient>
<path fill="url(#SVGID_5_)" d="M144.333,437.667c1.664-4.761,4.256-9.218,7.51-13.147c3.252-3.935,7.283-7.3,11.887-9.697
	c2.298-1.199,4.727-2.169,7.236-2.868c2.512-0.684,5.091-1.135,7.688-1.331c5.184-0.483,10.678,0.281,15.533,2.506
	c4.881,2.184,9.135,5.62,12.507,9.708c3.39,4.09,5.902,8.854,7.52,13.9c1.609,5.047,2.337,10.417,1.885,15.79
	c-0.43,5.356-2.206,10.751-5.473,15.24l-1.987-3.863l20.441-0.242l20.439-0.046c13.626-0.043,27.254,0.142,40.881,0.33
	c13.627,0.278,27.255,0.616,40.878,1.251c6.813,0.291,13.621,0.717,20.427,1.2c3.401,0.271,6.801,0.567,10.195,0.933
	c1.697,0.182,3.392,0.406,5.08,0.658c1.686,0.264,3.38,0.532,5.019,1.011c-3.352-0.616-6.767-0.667-10.16-0.817
	c-3.398-0.125-6.801-0.182-10.203-0.212c-6.803-0.108-13.61-0.058-20.416-0.064c-13.612,0.054-27.226,0.139-40.84,0.28
	l-81.686,0.576l-4.885,0.034l2.897-3.897c2.713-3.65,4.213-8.167,4.709-12.814c0.489-4.662-0.051-9.478-1.411-14.044
	c-1.365-4.569-3.562-8.903-6.46-12.684c-2.907-3.769-6.596-6.945-10.856-9.022c-4.264-2.082-9.014-3.06-13.872-2.818
	c-4.861,0.153-9.691,1.214-14.151,3.222C155.737,420.794,148.552,428.559,144.333,437.667z"/>
<linearGradient id="SVGID_6_" gradientUnits="userSpaceOnUse" x1="347.3203" y1="468.4316" x2="347.3203" y2="410.2681">
	<stop  offset="0" style="stop-color:#F2C982"/>
	<stop  offset="0.2822" style="stop-color:#F2CF98"/>
	<stop  offset="0.5276" style="stop-color:#FFE69A"/>
	<stop  offset="0.7423" style="stop-color:#FFF1C9"/>
</linearGradient>
<path fill="url(#SVGID_6_)" d="M195.667,411.998c2.344,0.713,4.609,1.685,6.805,2.792c2.19,1.118,4.315,2.39,6.301,3.866
	c3.973,2.933,7.492,6.621,9.944,11.025l-0.755-0.431l21.104-1.451l21.108-1.355l42.225-2.536l42.237-2.294l42.245-2.104
	l-1.391,0.506c1.931-1.403,3.767-2.49,5.738-3.56c1.954-1.048,3.966-1.987,6.032-2.807c4.13-1.635,8.497-2.798,13.006-3.216
	c4.498-0.42,9.146-0.048,13.533,1.301c4.396,1.324,8.45,3.649,11.907,6.547c3.418,2.895,6.468,6.222,8.849,10.104
	c2.379,3.861,3.976,8.271,4.523,12.796c0.577,4.527,0.113,9.091-0.938,13.384c-0.521,2.151-1.186,4.249-1.901,6.285l-1.063,2.994
	c-0.167,0.484-0.327,0.964-0.452,1.408c-0.129,0.417-0.204,0.916-0.196,0.939l-2.048-1.715c5.616-0.532,11.281-1.338,16.873-2.287
	c5.591-0.978,11.159-2.156,16.511-3.885c2.666-0.871,5.287-1.894,7.663-3.231c1.178-0.674,2.295-1.44,3.187-2.352
	c1.133-1.131,2.291-1.957,3.409-2.848c2.234-1.727,4.266-3.591,5.58-5.973c1.328-2.36,1.929-5.113,1.995-7.9l0.032,0.2
	c-0.582-1.656-1.324-3.414-1.97-5.131c-0.66-1.729-1.308-3.467-1.886-5.228c-0.581-1.76-1.118-3.537-1.549-5.341
	c-0.41-1.801-0.789-3.648-0.66-5.5c-0.014,1.853,0.475,3.652,0.99,5.411c0.537,1.761,1.178,3.487,1.861,5.195
	c0.689,1.707,1.404,3.403,2.153,5.088c0.741,1.705,1.528,3.312,2.263,5.105l0.029,0.071l0.003,0.129
	c0.076,2.925-0.383,5.98-1.773,8.69c-1.354,2.73-3.565,4.914-5.77,6.768c-1.086,0.936-2.221,1.847-3.075,2.783
	c-1.069,1.185-2.309,2.098-3.579,2.9c-2.554,1.595-5.279,2.723-8.018,3.731c-5.497,1.977-11.128,3.36-16.783,4.545
	c-5.667,1.176-11.342,2.07-17.116,2.774l-1.961,0.239l-0.087-1.955c-0.046-1.042,0.141-1.59,0.274-2.197
	c0.149-0.582,0.315-1.114,0.481-1.638l0.996-3.035c0.646-1.987,1.217-3.96,1.648-5.949c0.865-3.971,1.156-8.009,0.615-11.919
	c-0.534-3.909-1.947-7.649-4.069-10.991c-2.109-3.342-4.913-6.323-8.009-8.868c-3.086-2.512-6.591-4.42-10.337-5.547
	c-3.747-1.131-7.729-1.441-11.683-1.055c-3.956,0.385-7.88,1.439-11.636,2.948c-1.879,0.755-3.719,1.625-5.503,2.594
	c-1.76,0.956-3.573,2.064-5.074,3.167l-0.643,0.473l-0.748,0.034l-42.255,1.924l-42.263,1.735l-42.275,1.493l-21.142,0.659
	l-21.146,0.563l-0.534,0.015l-0.221-0.445c-2.119-4.275-5.308-8.021-9.053-11.086c-1.875-1.533-3.873-2.933-5.976-4.166
	C200.151,413.957,197.961,412.852,195.667,411.998z"/>
</svg>
