<?xml version="1.0" encoding="utf-8"?>
<!-- Generator: Adobe Illustrator 15.1.0, SVG Export Plug-In . SVG Version: 6.00 Build 0)  -->
<!DOCTYPE svg PUBLIC "-//W3C//DTD SVG 1.1//EN" "http://www.w3.org/Graphics/SVG/1.1/DTD/svg11.dtd">
<svg version="1.1" id="Layer_1" xmlns="http://www.w3.org/2000/svg" xmlns:xlink="http://www.w3.org/1999/xlink" x="0px" y="0px"
	 width="595.28px" height="841.89px" viewBox="0 0 595.28 841.89" enable-background="new 0 0 595.28 841.89" xml:space="preserve">
<path fill="#1E1911" d="M182.078,171c-30.493,0-52.274,14.502-58.497,34.416c-12.446,41.694,21.781,71.659,46.673,79.997
	c24.893,8.338,60.987,19.092,81.523,33.341c20.536,14.25,15.877,42.811-3.734,59.828c-27.228,23.629-104.809,7.066-104.809,7.066
	c11.824,9.956,21.419,15.354,37.599,19.713c57.875,16.799,103.304-13.067,103.304-59.516c0-46.451-58.499-61.832-90.858-72.189
	c-32.36-10.357-51.03-22.001-51.03-52.495c0-30.492,49.939-29.642,49.939-29.642l141.053-1.243
	c-29.869,22.341-40.011,48.637-43.975,56.837c-14.054,29.066-5.734,83.14,1.343,97.208c28.525,56.709,82.046,62.104,82.046,62.104
	l69.283,0.414c-39.827,25.307-86.858,43.333-141.766,43.333c-93.426,0.173-170.992-63.477-170.992-63.477
	c-1.866,3.112-4.201,15.164,2.669,21.414c21.159,16.802,73.593,60.11,168.807,60.11c95.211,0,173.342-61.608,173.342-61.608V171
	C474,171,212.571,171,182.078,171z M453,388h-70.54c0,0-82.142-6.353-82.142-93.188c0-86.834,69.697-103.812,82.142-103.812
	c12.447,0,70.54,0,70.54,0V388z"/>
<g>
	<path fill="#030303" d="M440.807,664.261l-0.364-5.264h-0.082c-0.488,1.025-1.087,1.91-1.803,2.648
		c-0.714,0.746-1.502,1.354-2.367,1.824c-0.862,0.472-1.787,0.815-2.771,1.031c-0.988,0.215-2.004,0.325-3.06,0.325
		c-2.266,0-4.257-0.416-5.971-1.234c-1.713-0.824-3.136-1.924-4.271-3.301c-1.131-1.371-1.982-2.967-2.549-4.776
		c-0.565-1.805-0.851-3.71-0.851-5.707c0-1.996,0.285-3.897,0.851-5.706c0.566-1.811,1.418-3.407,2.549-4.795
		c1.135-1.394,2.558-2.498,4.271-3.321c1.714-0.822,3.705-1.235,5.971-1.235c1.513,0,2.943,0.2,4.29,0.607
		c1.352,0.403,2.552,1.01,3.604,1.821c1.053,0.807,1.944,1.81,2.673,2.994c0.728,1.188,1.226,2.577,1.496,4.173h-2.753
		c-0.08-0.837-0.356-1.683-0.831-2.53c-0.469-0.854-1.104-1.63-1.898-2.33c-0.8-0.7-1.748-1.273-2.855-1.719
		c-1.105-0.444-2.347-0.668-3.726-0.668c-1.914,0-3.562,0.363-4.937,1.092c-1.376,0.729-2.504,1.693-3.379,2.897
		c-0.879,1.2-1.528,2.557-1.942,4.062c-0.419,1.513-0.63,3.064-0.63,4.658c0,1.564,0.211,3.11,0.63,4.637
		c0.414,1.525,1.063,2.887,1.942,4.086c0.875,1.202,2.003,2.167,3.379,2.895c1.375,0.731,3.022,1.091,4.937,1.091
		c1.596,0,3.018-0.262,4.271-0.787c1.256-0.526,2.313-1.26,3.179-2.204c0.861-0.946,1.508-2.067,1.941-3.362
		c0.432-1.292,0.636-2.711,0.608-4.25h-9.836v-2.347h12.267v14.695H440.807z"/>
	<path fill="#030303" d="M450.967,643.371v4.901h0.078c0.647-1.705,1.654-3.012,3.016-3.927c1.363-0.917,2.988-1.337,4.878-1.258
		v2.549c-1.16-0.052-2.214,0.102-3.156,0.469c-0.949,0.36-1.76,0.885-2.45,1.559c-0.688,0.676-1.219,1.478-1.598,2.406
		c-0.377,0.931-0.566,1.951-0.566,3.057v11.134h-2.551v-20.89H450.967z"/>
	<path fill="#030303" d="M474.703,643.655c1.229,0.594,2.261,1.39,3.1,2.387c0.836,1,1.47,2.169,1.9,3.503s0.647,2.76,0.647,4.271
		c0,1.511-0.217,2.934-0.647,4.267c-0.431,1.34-1.064,2.505-1.9,3.506c-0.839,0.999-1.871,1.784-3.1,2.367
		c-1.227,0.579-2.637,0.87-4.228,0.87c-1.594,0-3.004-0.291-4.23-0.87c-1.228-0.583-2.262-1.368-3.097-2.367
		c-0.838-1.001-1.47-2.166-1.902-3.506c-0.432-1.333-0.647-2.756-0.647-4.267c0-1.512,0.216-2.938,0.647-4.271
		c0.433-1.334,1.064-2.503,1.902-3.503c0.835-0.997,1.869-1.793,3.097-2.387c1.227-0.592,2.637-0.892,4.23-0.892
		C472.066,642.764,473.477,643.063,474.703,643.655z M467.279,645.682c-0.922,0.509-1.682,1.186-2.289,2.02
		c-0.608,0.839-1.066,1.788-1.375,2.854c-0.313,1.066-0.467,2.151-0.467,3.261c0,1.104,0.153,2.191,0.467,3.259
		c0.309,1.065,0.767,2.018,1.375,2.854c0.607,0.837,1.367,1.509,2.289,2.021c0.913,0.514,1.979,0.771,3.196,0.771
		s2.279-0.257,3.196-0.771c0.919-0.513,1.681-1.185,2.289-2.021c0.604-0.836,1.064-1.788,1.374-2.854
		c0.312-1.067,0.468-2.154,0.468-3.259c0-1.109-0.156-2.194-0.468-3.261c-0.31-1.066-0.77-2.016-1.374-2.854
		c-0.608-0.834-1.37-1.511-2.289-2.02c-0.917-0.516-1.979-0.77-3.196-0.77S468.192,645.166,467.279,645.682z"/>
	<path fill="#030303" d="M499.739,664.261v-3.769h-0.08c-0.675,1.406-1.653,2.478-2.937,3.219c-1.279,0.743-2.701,1.115-4.268,1.115
		c-1.322,0-2.45-0.183-3.38-0.548c-0.933-0.365-1.688-0.882-2.268-1.558c-0.581-0.671-1.005-1.498-1.272-2.473
		c-0.272-0.971-0.407-2.074-0.407-3.315v-13.562h2.55v13.603c0.055,1.887,0.492,3.317,1.313,4.29
		c0.826,0.971,2.252,1.457,4.274,1.457c1.104,0,2.047-0.238,2.832-0.708c0.779-0.472,1.43-1.101,1.941-1.884
		c0.512-0.782,0.891-1.681,1.136-2.692c0.241-1.013,0.364-2.043,0.364-3.097v-10.969h2.55v20.89H499.739z"/>
	<path fill="#030303" d="M510.263,643.371v3.968h0.083c0.594-1.457,1.559-2.584,2.895-3.38c1.336-0.797,2.854-1.195,4.553-1.195
		c1.594,0,2.976,0.3,4.147,0.892c1.175,0.594,2.152,1.397,2.936,2.407c0.782,1.014,1.362,2.188,1.742,3.522
		c0.377,1.336,0.567,2.744,0.567,4.231c0,1.484-0.19,2.892-0.567,4.226c-0.38,1.338-0.96,2.514-1.742,3.523
		c-0.783,1.012-1.761,1.808-2.936,2.391c-1.172,0.579-2.554,0.87-4.147,0.87c-0.755,0-1.512-0.096-2.269-0.284
		c-0.756-0.188-1.454-0.472-2.104-0.853c-0.646-0.378-1.222-0.849-1.719-1.413c-0.502-0.565-0.886-1.228-1.155-1.985h-0.08v11.657
		h-2.551v-28.577H510.263z M524.249,650.598c-0.256-1.064-0.662-2.017-1.214-2.855c-0.553-0.837-1.262-1.516-2.125-2.044
		c-0.864-0.525-1.903-0.786-3.117-0.786c-1.404,0-2.576,0.237-3.522,0.725c-0.945,0.489-1.699,1.139-2.265,1.945
		c-0.568,0.81-0.966,1.755-1.195,2.831c-0.23,1.08-0.344,2.218-0.344,3.403c0,1.079,0.129,2.153,0.386,3.216
		c0.255,1.069,0.672,2.017,1.254,2.854c0.58,0.838,1.335,1.519,2.268,2.044c0.928,0.528,2.069,0.79,3.419,0.79
		c1.214,0,2.253-0.262,3.117-0.79c0.863-0.525,1.572-1.206,2.125-2.044c0.552-0.838,0.958-1.785,1.214-2.854
		c0.257-1.063,0.383-2.137,0.383-3.216C524.632,652.735,524.506,651.667,524.249,650.598z"/>
</g>
<g>
	<linearGradient id="SVGID_1_" gradientUnits="userSpaceOnUse" x1="428.2783" y1="663.5254" x2="428.2783" y2="633.4492">
		<stop  offset="0.2209" style="stop-color:#DDB67F"/>
		<stop  offset="0.3497" style="stop-color:#F2CF98"/>
		<stop  offset="0.5583" style="stop-color:#FFE69A"/>
		<stop  offset="1" style="stop-color:#FFF1C9"/>
	</linearGradient>
	<path fill="url(#SVGID_1_)" d="M439.329,662.96l-0.364-5.265h-0.081c-0.487,1.026-1.088,1.911-1.802,2.649
		c-0.715,0.745-1.503,1.354-2.368,1.825c-0.862,0.472-1.787,0.813-2.771,1.031c-0.987,0.215-2.004,0.324-3.059,0.324
		c-2.266,0-4.256-0.416-5.971-1.235c-1.714-0.823-3.136-1.923-4.27-3.299c-1.133-1.374-1.983-2.967-2.549-4.777
		c-0.567-1.806-0.852-3.709-0.852-5.707c0-1.997,0.284-3.897,0.852-5.706c0.565-1.811,1.416-3.407,2.549-4.796
		c1.134-1.392,2.556-2.497,4.27-3.319c1.715-0.823,3.705-1.236,5.971-1.236c1.513,0,2.942,0.201,4.289,0.608
		c1.353,0.403,2.553,1.009,3.605,1.821c1.053,0.807,1.943,1.809,2.672,2.993c0.728,1.188,1.227,2.578,1.496,4.174h-2.752
		c-0.08-0.837-0.357-1.684-0.831-2.531c-0.469-0.853-1.104-1.63-1.897-2.33c-0.803-0.7-1.75-1.273-2.856-1.718
		c-1.107-0.445-2.346-0.669-3.726-0.669c-1.915,0-3.562,0.364-4.937,1.093c-1.377,0.729-2.505,1.692-3.379,2.896
		c-0.879,1.2-1.528,2.556-1.942,4.062c-0.42,1.514-0.632,3.064-0.632,4.658c0,1.566,0.212,3.111,0.632,4.636
		c0.414,1.527,1.063,2.889,1.942,4.088c0.874,1.2,2.002,2.167,3.379,2.895c1.375,0.729,3.021,1.091,4.937,1.091
		c1.595,0,3.018-0.263,4.272-0.788c1.254-0.527,2.313-1.26,3.178-2.204c0.862-0.947,1.508-2.068,1.941-3.361
		c0.432-1.293,0.635-2.711,0.608-4.25h-9.836v-2.347h12.266v14.694H439.329z"/>
	<linearGradient id="SVGID_2_" gradientUnits="userSpaceOnUse" x1="452.3008" y1="662.96" x2="452.3008" y2="641.7783">
		<stop  offset="0.2209" style="stop-color:#DDB67F"/>
		<stop  offset="0.3497" style="stop-color:#F2CF98"/>
		<stop  offset="0.5583" style="stop-color:#FFE69A"/>
		<stop  offset="1" style="stop-color:#FFF1C9"/>
	</linearGradient>
	<path fill="url(#SVGID_2_)" d="M449.49,642.07v4.9h0.078c0.646-1.703,1.654-3.012,3.015-3.925c1.364-0.918,2.988-1.338,4.878-1.258
		v2.548c-1.158-0.052-2.213,0.102-3.156,0.469c-0.948,0.36-1.76,0.885-2.449,1.558c-0.687,0.677-1.22,1.479-1.6,2.408
		c-0.376,0.931-0.565,1.949-0.565,3.057v11.133h-2.551v-20.89H449.49z"/>
	<linearGradient id="SVGID_3_" gradientUnits="userSpaceOnUse" x1="468.998" y1="663.5254" x2="468.998" y2="641.4619">
		<stop  offset="0.2209" style="stop-color:#DDB67F"/>
		<stop  offset="0.3497" style="stop-color:#F2CF98"/>
		<stop  offset="0.5583" style="stop-color:#FFE69A"/>
		<stop  offset="1" style="stop-color:#FFF1C9"/>
	</linearGradient>
	<path fill="url(#SVGID_3_)" d="M473.228,642.355c1.227,0.593,2.259,1.389,3.098,2.386c0.837,0.999,1.471,2.17,1.901,3.503
		c0.431,1.334,0.646,2.76,0.646,4.272c0,1.51-0.216,2.934-0.646,4.267c-0.431,1.339-1.064,2.504-1.901,3.504
		c-0.839,1-1.871,1.786-3.098,2.368c-1.228,0.58-2.639,0.87-4.229,0.87c-1.592,0-3.003-0.29-4.23-0.87
		c-1.227-0.582-2.261-1.368-3.097-2.368c-0.838-1-1.469-2.165-1.901-3.504c-0.433-1.333-0.647-2.757-0.647-4.267
		c0-1.513,0.215-2.938,0.647-4.272c0.433-1.333,1.063-2.504,1.901-3.503c0.836-0.997,1.87-1.793,3.097-2.386
		c1.228-0.594,2.639-0.894,4.23-0.894C470.589,641.462,472,641.762,473.228,642.355z M465.802,644.381
		c-0.921,0.508-1.68,1.186-2.288,2.02c-0.608,0.84-1.067,1.788-1.375,2.854c-0.313,1.068-0.468,2.152-0.468,3.263
		c0,1.104,0.154,2.191,0.468,3.258c0.308,1.066,0.767,2.018,1.375,2.854c0.608,0.838,1.367,1.509,2.288,2.021
		c0.915,0.514,1.98,0.771,3.196,0.771c1.217,0,2.279-0.258,3.197-0.771c0.919-0.513,1.681-1.184,2.288-2.021
		c0.604-0.836,1.065-1.787,1.376-2.854c0.31-1.066,0.466-2.153,0.466-3.258c0-1.11-0.156-2.194-0.466-3.263
		c-0.311-1.065-0.771-2.014-1.376-2.854c-0.607-0.834-1.369-1.512-2.288-2.02c-0.918-0.514-1.98-0.77-3.197-0.77
		C467.782,643.611,466.717,643.867,465.802,644.381z"/>
	<linearGradient id="SVGID_4_" gradientUnits="userSpaceOnUse" x1="492.1309" y1="663.5254" x2="492.1309" y2="642.0703">
		<stop  offset="0.2209" style="stop-color:#DDB67F"/>
		<stop  offset="0.3497" style="stop-color:#F2CF98"/>
		<stop  offset="0.5583" style="stop-color:#FFE69A"/>
		<stop  offset="1" style="stop-color:#FFF1C9"/>
	</linearGradient>
	<path fill="url(#SVGID_4_)" d="M498.264,662.96v-3.768h-0.081c-0.676,1.405-1.652,2.478-2.937,3.219
		c-1.279,0.743-2.702,1.114-4.269,1.114c-1.323,0-2.449-0.183-3.379-0.548c-0.933-0.364-1.688-0.883-2.268-1.557
		c-0.582-0.673-1.006-1.499-1.273-2.474c-0.272-0.971-0.407-2.074-0.407-3.315V642.07h2.551v13.603
		c0.054,1.887,0.492,3.318,1.313,4.29c0.827,0.97,2.253,1.458,4.276,1.458c1.104,0,2.046-0.239,2.83-0.71
		c0.78-0.471,1.429-1.1,1.942-1.883c0.512-0.783,0.892-1.68,1.136-2.691c0.241-1.014,0.363-2.043,0.363-3.097v-10.97h2.551v20.89
		H498.264z"/>
	<linearGradient id="SVGID_5_" gradientUnits="userSpaceOnUse" x1="516.0742" y1="670.6475" x2="516.0742" y2="641.4619">
		<stop  offset="0.2209" style="stop-color:#DDB67F"/>
		<stop  offset="0.3497" style="stop-color:#F2CF98"/>
		<stop  offset="0.5583" style="stop-color:#FFE69A"/>
		<stop  offset="1" style="stop-color:#FFF1C9"/>
	</linearGradient>
	<path fill="url(#SVGID_5_)" d="M508.786,642.07v3.967h0.082c0.594-1.456,1.559-2.583,2.896-3.38
		c1.334-0.796,2.854-1.195,4.554-1.195c1.592,0,2.975,0.3,4.146,0.894c1.176,0.593,2.153,1.396,2.937,2.407
		c0.782,1.013,1.362,2.188,1.741,3.521c0.377,1.337,0.568,2.744,0.568,4.233c0,1.483-0.191,2.892-0.568,4.226
		c-0.379,1.336-0.959,2.513-1.741,3.523c-0.783,1.012-1.761,1.808-2.937,2.39c-1.171,0.58-2.554,0.87-4.146,0.87
		c-0.756,0-1.514-0.095-2.27-0.283c-0.756-0.188-1.454-0.472-2.104-0.854c-0.646-0.378-1.222-0.848-1.718-1.413
		c-0.503-0.565-0.886-1.229-1.156-1.984h-0.08v11.656h-2.551V642.07H508.786z M522.772,649.298
		c-0.257-1.065-0.662-2.018-1.215-2.856c-0.553-0.836-1.26-1.516-2.124-2.044c-0.865-0.524-1.903-0.786-3.116-0.786
		c-1.405,0-2.577,0.237-3.524,0.725c-0.943,0.489-1.699,1.14-2.264,1.944c-0.568,0.81-0.966,1.757-1.195,2.833
		c-0.231,1.08-0.344,2.217-0.344,3.403c0,1.078,0.128,2.153,0.386,3.214c0.255,1.07,0.672,2.019,1.253,2.854
		c0.58,0.84,1.337,1.521,2.267,2.044c0.93,0.529,2.072,0.792,3.422,0.792c1.213,0,2.251-0.263,3.116-0.792
		c0.864-0.523,1.571-1.204,2.124-2.044c0.553-0.836,0.958-1.784,1.215-2.854c0.258-1.061,0.383-2.136,0.383-3.214
		C523.155,651.435,523.03,650.365,522.772,649.298z"/>
</g>
<g>
	<path fill="#030303" d="M494.454,220.735l-3.153,0.218v0.049c0.614,0.292,1.145,0.651,1.587,1.08
		c0.447,0.428,0.811,0.9,1.093,1.418c0.282,0.517,0.488,1.071,0.617,1.659c0.129,0.592,0.195,1.201,0.195,1.833
		c0,1.357-0.249,2.549-0.74,3.576c-0.493,1.026-1.151,1.878-1.977,2.559c-0.821,0.677-1.776,1.187-2.86,1.526
		c-1.082,0.338-2.222,0.509-3.419,0.509c-1.195,0-2.334-0.171-3.417-0.509c-1.084-0.34-2.04-0.85-2.872-1.526
		c-0.835-0.68-1.496-1.532-1.988-2.559c-0.493-1.026-0.741-2.219-0.741-3.576c0-0.906,0.12-1.763,0.364-2.569
		c0.241-0.81,0.604-1.528,1.091-2.159c0.483-0.63,1.084-1.165,1.794-1.601c0.712-0.436,1.543-0.734,2.499-0.896v1.649
		c-0.501,0.048-1.008,0.213-1.516,0.498c-0.512,0.281-0.976,0.661-1.396,1.137c-0.42,0.479-0.762,1.047-1.029,1.71
		c-0.267,0.662-0.399,1.405-0.399,2.231c0,1.146,0.217,2.133,0.653,2.957c0.437,0.824,1.015,1.5,1.734,2.024
		c0.72,0.526,1.531,0.916,2.434,1.164c0.906,0.25,1.835,0.377,2.789,0.377c0.938,0,1.864-0.126,2.777-0.377
		c0.914-0.248,1.729-0.637,2.447-1.164c0.72-0.524,1.299-1.2,1.734-2.024c0.438-0.823,0.652-1.81,0.652-2.957
		c0-0.956-0.156-1.807-0.471-2.558c-0.315-0.752-0.755-1.386-1.32-1.904c-0.566-0.516-1.238-0.902-2.014-1.163
		c-0.774-0.258-1.624-0.38-2.546-0.364v5.891h-1.405v-7.347h8.802V220.735z"/>
	<path fill="#030303" d="M481.943,214.649h2.935v-0.046c-1.021-0.388-1.804-0.991-2.352-1.807c-0.55-0.816-0.801-1.79-0.754-2.921
		h1.527c-0.032,0.695,0.061,1.326,0.28,1.89c0.216,0.568,0.53,1.054,0.935,1.468c0.403,0.412,0.884,0.73,1.44,0.957
		c0.557,0.226,1.168,0.339,1.83,0.339h6.669v1.528h-12.511V214.649z"/>
	<path fill="#030303" d="M482.113,200.433c0.355-0.736,0.831-1.354,1.429-1.856c0.599-0.5,1.3-0.88,2.098-1.138
		c0.8-0.258,1.653-0.388,2.559-0.388c0.904,0,1.758,0.13,2.556,0.388c0.803,0.258,1.501,0.638,2.1,1.138
		c0.6,0.502,1.069,1.121,1.418,1.856c0.347,0.734,0.521,1.58,0.521,2.532c0,0.954-0.175,1.799-0.521,2.534
		c-0.349,0.735-0.818,1.354-1.418,1.854c-0.599,0.502-1.297,0.88-2.1,1.14c-0.798,0.258-1.651,0.387-2.556,0.387
		c-0.905,0-1.759-0.129-2.559-0.387c-0.798-0.259-1.499-0.638-2.098-1.14c-0.598-0.5-1.073-1.119-1.429-1.854
		c-0.355-0.734-0.534-1.58-0.534-2.534C481.579,202.013,481.758,201.167,482.113,200.433z M483.326,204.879
		c0.305,0.552,0.711,1.007,1.21,1.371c0.503,0.364,1.07,0.639,1.709,0.823c0.64,0.188,1.288,0.28,1.953,0.28
		c0.661,0,1.313-0.091,1.951-0.28c0.64-0.185,1.21-0.459,1.71-0.823c0.502-0.364,0.904-0.819,1.211-1.371
		c0.307-0.547,0.461-1.186,0.461-1.914c0-0.729-0.154-1.366-0.461-1.915c-0.307-0.55-0.709-1.006-1.211-1.371
		c-0.5-0.362-1.07-0.637-1.71-0.823c-0.639-0.187-1.29-0.28-1.951-0.28c-0.665,0-1.313,0.094-1.953,0.28
		c-0.639,0.186-1.206,0.461-1.709,0.823c-0.499,0.365-0.905,0.821-1.21,1.371c-0.309,0.549-0.461,1.186-0.461,1.915
		C482.865,203.694,483.018,204.333,483.326,204.879z"/>
	<path fill="#030303" d="M494.454,185.438h-2.258v0.048c0.843,0.404,1.483,0.99,1.928,1.759c0.446,0.766,0.669,1.618,0.669,2.556
		c0,0.792-0.11,1.467-0.328,2.024c-0.219,0.559-0.528,1.011-0.934,1.358c-0.402,0.348-0.896,0.602-1.48,0.762
		c-0.582,0.163-1.242,0.244-1.986,0.244h-8.121v-1.527h8.146c1.131-0.033,1.987-0.295,2.569-0.787
		c0.582-0.495,0.873-1.349,0.873-2.56c0-0.662-0.143-1.227-0.424-1.697c-0.283-0.467-0.659-0.856-1.129-1.163
		c-0.468-0.307-1.006-0.533-1.611-0.68c-0.606-0.144-1.225-0.218-1.855-0.218h-6.568v-1.527h12.511V185.438z"/>
	<path fill="#030303" d="M481.943,179.135h2.375v-0.049c-0.871-0.355-1.547-0.934-2.023-1.734c-0.478-0.8-0.716-1.709-0.716-2.727
		c0-0.955,0.179-1.782,0.534-2.484c0.355-0.704,0.837-1.29,1.44-1.758c0.607-0.468,1.312-0.816,2.11-1.043
		c0.801-0.226,1.644-0.34,2.534-0.34c0.889,0,1.731,0.114,2.531,0.34c0.801,0.227,1.505,0.575,2.109,1.043
		c0.606,0.469,1.084,1.055,1.433,1.758c0.347,0.702,0.521,1.529,0.521,2.484c0,0.452-0.058,0.905-0.171,1.358
		c-0.112,0.453-0.282,0.871-0.51,1.26c-0.228,0.387-0.509,0.731-0.848,1.029c-0.338,0.301-0.734,0.53-1.188,0.692v0.048h6.982v1.528
		h-17.115V179.135z M486.271,170.759c-0.638,0.153-1.208,0.396-1.71,0.727c-0.501,0.331-0.908,0.756-1.225,1.272
		c-0.314,0.518-0.471,1.14-0.471,1.867c0,0.841,0.143,1.543,0.435,2.109s0.682,1.018,1.164,1.356
		c0.485,0.34,1.053,0.579,1.696,0.716c0.646,0.138,1.328,0.206,2.038,0.206c0.646,0,1.29-0.077,1.926-0.231
		c0.641-0.153,1.209-0.402,1.71-0.751c0.502-0.347,0.909-0.8,1.225-1.358c0.316-0.556,0.473-1.239,0.473-2.047
		c0-0.727-0.156-1.349-0.473-1.867c-0.315-0.517-0.723-0.941-1.225-1.272c-0.501-0.331-1.069-0.574-1.71-0.727
		c-0.636-0.154-1.279-0.229-1.926-0.229S486.912,170.605,486.271,170.759z"/>
</g>
<g>
	
		<linearGradient id="SVGID_6_" gradientUnits="userSpaceOnUse" x1="814.2461" y1="315.4697" x2="814.2461" y2="297.4561" gradientTransform="matrix(0 -1 1 0 178.5435 1042.4844)">
		<stop  offset="0.2209" style="stop-color:#DDB67F"/>
		<stop  offset="0.3497" style="stop-color:#F2CF98"/>
		<stop  offset="0.5583" style="stop-color:#FFE69A"/>
		<stop  offset="1" style="stop-color:#FFF1C9"/>
	</linearGradient>
	<path fill="url(#SVGID_6_)" d="M493.675,221.62l-3.153,0.218v0.048c0.615,0.292,1.145,0.651,1.587,1.079
		c0.446,0.428,0.811,0.9,1.094,1.418c0.281,0.517,0.486,1.07,0.617,1.66c0.129,0.591,0.194,1.2,0.194,1.833
		c0,1.357-0.25,2.549-0.74,3.576c-0.493,1.026-1.152,1.878-1.976,2.557c-0.823,0.679-1.777,1.188-2.861,1.527
		c-1.081,0.34-2.222,0.51-3.419,0.51c-1.195,0-2.333-0.17-3.417-0.51c-1.084-0.339-2.041-0.849-2.872-1.527
		c-0.833-0.678-1.496-1.53-1.988-2.557c-0.493-1.027-0.74-2.219-0.74-3.576c0-0.906,0.12-1.762,0.365-2.569
		c0.24-0.81,0.604-1.528,1.09-2.159c0.482-0.63,1.083-1.164,1.793-1.601c0.712-0.436,1.545-0.735,2.5-0.896v1.648
		c-0.502,0.048-1.008,0.214-1.517,0.498c-0.511,0.281-0.976,0.661-1.396,1.136c-0.419,0.481-0.763,1.048-1.028,1.71
		c-0.267,0.664-0.401,1.405-0.401,2.232c0,1.147,0.219,2.133,0.655,2.956c0.437,0.825,1.013,1.5,1.734,2.024
		c0.718,0.526,1.53,0.916,2.433,1.164c0.907,0.251,1.835,0.378,2.789,0.378c0.939,0,1.863-0.127,2.777-0.378
		c0.914-0.248,1.73-0.637,2.448-1.164c0.719-0.523,1.298-1.199,1.733-2.024c0.438-0.823,0.654-1.809,0.654-2.956
		c0-0.955-0.158-1.808-0.473-2.559c-0.315-0.751-0.754-1.385-1.32-1.903c-0.567-0.517-1.238-0.903-2.014-1.163
		c-0.774-0.259-1.623-0.38-2.545-0.365v5.891h-1.405v-7.346h8.801V221.62z"/>
	
		<linearGradient id="SVGID_7_" gradientUnits="userSpaceOnUse" x1="828.6338" y1="315.1309" x2="828.6338" y2="302.4443" gradientTransform="matrix(0 -1 1 0 178.5435 1042.4844)">
		<stop  offset="0.2209" style="stop-color:#DDB67F"/>
		<stop  offset="0.3497" style="stop-color:#F2CF98"/>
		<stop  offset="0.5583" style="stop-color:#FFE69A"/>
		<stop  offset="1" style="stop-color:#FFF1C9"/>
	</linearGradient>
	<path fill="url(#SVGID_7_)" d="M481.164,215.534h2.935v-0.047c-1.021-0.387-1.804-0.99-2.351-1.805
		c-0.55-0.817-0.802-1.79-0.754-2.921h1.526c-0.031,0.694,0.062,1.325,0.281,1.89c0.215,0.568,0.529,1.054,0.933,1.467
		c0.404,0.411,0.886,0.73,1.441,0.958c0.559,0.226,1.167,0.339,1.832,0.339h6.667v1.528h-12.511V215.534z"/>
	
		<linearGradient id="SVGID_8_" gradientUnits="userSpaceOnUse" x1="838.6338" y1="315.4697" x2="838.6338" y2="302.2549" gradientTransform="matrix(0 -1 1 0 178.5435 1042.4844)">
		<stop  offset="0.2209" style="stop-color:#DDB67F"/>
		<stop  offset="0.3497" style="stop-color:#F2CF98"/>
		<stop  offset="0.5583" style="stop-color:#FFE69A"/>
		<stop  offset="1" style="stop-color:#FFF1C9"/>
	</linearGradient>
	<path fill="url(#SVGID_8_)" d="M481.334,201.317c0.355-0.734,0.832-1.353,1.43-1.855c0.598-0.501,1.299-0.881,2.098-1.139
		s1.652-0.387,2.559-0.387c0.904,0,1.758,0.129,2.555,0.387c0.803,0.258,1.5,0.638,2.1,1.139c0.599,0.502,1.069,1.121,1.418,1.855
		c0.348,0.735,0.521,1.581,0.521,2.533c0,0.954-0.174,1.798-0.521,2.534c-0.349,0.734-0.819,1.354-1.418,1.855
		c-0.6,0.501-1.297,0.879-2.1,1.138c-0.797,0.259-1.65,0.388-2.555,0.388c-0.906,0-1.76-0.129-2.559-0.388
		c-0.799-0.259-1.5-0.637-2.098-1.138c-0.598-0.5-1.074-1.121-1.43-1.855c-0.355-0.735-0.535-1.58-0.535-2.534
		C480.799,202.897,480.979,202.052,481.334,201.317z M482.547,205.765c0.305,0.551,0.711,1.006,1.211,1.37
		c0.502,0.364,1.069,0.639,1.708,0.824c0.64,0.188,1.289,0.28,1.954,0.28c0.662,0,1.313-0.093,1.951-0.28
		c0.639-0.185,1.209-0.459,1.709-0.824c0.502-0.364,0.904-0.819,1.211-1.37c0.308-0.548,0.463-1.187,0.463-1.915
		c0-0.729-0.155-1.365-0.463-1.915c-0.307-0.55-0.709-1.006-1.211-1.37c-0.5-0.362-1.07-0.638-1.709-0.824
		c-0.639-0.186-1.289-0.279-1.951-0.279c-0.665,0-1.314,0.093-1.954,0.279c-0.639,0.186-1.206,0.462-1.708,0.824
		c-0.5,0.364-0.906,0.82-1.211,1.37c-0.308,0.55-0.461,1.186-0.461,1.915C482.086,204.578,482.239,205.216,482.547,205.765z"/>
	
		<linearGradient id="SVGID_9_" gradientUnits="userSpaceOnUse" x1="852.4893" y1="315.4697" x2="852.4893" y2="302.6201" gradientTransform="matrix(0 -1 1 0 178.5435 1042.4844)">
		<stop  offset="0.2209" style="stop-color:#DDB67F"/>
		<stop  offset="0.3497" style="stop-color:#F2CF98"/>
		<stop  offset="0.5583" style="stop-color:#FFE69A"/>
		<stop  offset="1" style="stop-color:#FFF1C9"/>
	</linearGradient>
	<path fill="url(#SVGID_9_)" d="M493.675,186.322h-2.257v0.048c0.842,0.405,1.484,0.99,1.929,1.759
		c0.444,0.766,0.667,1.619,0.667,2.557c0,0.792-0.109,1.467-0.328,2.023c-0.218,0.559-0.529,1.011-0.932,1.358
		c-0.404,0.349-0.898,0.603-1.482,0.763c-0.581,0.163-1.242,0.244-1.986,0.244h-8.121v-1.528h8.146
		c1.13-0.032,1.987-0.294,2.569-0.786c0.58-0.496,0.874-1.35,0.874-2.562c0-0.661-0.144-1.225-0.426-1.695
		c-0.282-0.467-0.659-0.856-1.128-1.163c-0.469-0.307-1.006-0.534-1.612-0.681c-0.607-0.145-1.223-0.217-1.854-0.217h-6.569v-1.528
		h12.511V186.322z"/>
	
		<linearGradient id="SVGID_10_" gradientUnits="userSpaceOnUse" x1="866.8291" y1="319.7354" x2="866.8291" y2="302.2549" gradientTransform="matrix(0 -1 1 0 178.5435 1042.4844)">
		<stop  offset="0.2209" style="stop-color:#DDB67F"/>
		<stop  offset="0.3497" style="stop-color:#F2CF98"/>
		<stop  offset="0.5583" style="stop-color:#FFE69A"/>
		<stop  offset="1" style="stop-color:#FFF1C9"/>
	</linearGradient>
	<path fill="url(#SVGID_10_)" d="M481.164,180.02h2.374v-0.049c-0.872-0.355-1.546-0.933-2.023-1.734
		c-0.477-0.798-0.716-1.709-0.716-2.727c0-0.953,0.18-1.782,0.535-2.483c0.355-0.705,0.837-1.29,1.441-1.759
		c0.607-0.469,1.311-0.816,2.109-1.043c0.8-0.226,1.644-0.34,2.535-0.34c0.889,0,1.732,0.115,2.531,0.34
		c0.801,0.227,1.505,0.574,2.11,1.043c0.605,0.469,1.082,1.054,1.431,1.759c0.348,0.701,0.521,1.53,0.521,2.483
		c0,0.452-0.058,0.906-0.17,1.359c-0.112,0.453-0.282,0.871-0.512,1.259c-0.226,0.387-0.508,0.732-0.846,1.029
		c-0.339,0.301-0.735,0.53-1.188,0.692v0.048h6.981v1.528h-17.115V180.02z M485.492,171.643c-0.638,0.154-1.209,0.396-1.711,0.728
		c-0.5,0.33-0.908,0.754-1.225,1.271c-0.313,0.519-0.471,1.14-0.471,1.867c0,0.841,0.143,1.543,0.435,2.111
		c0.293,0.565,0.683,1.018,1.164,1.356c0.485,0.34,1.052,0.578,1.696,0.716c0.647,0.138,1.328,0.206,2.039,0.206
		c0.646,0,1.289-0.077,1.925-0.23c0.642-0.153,1.209-0.403,1.71-0.75c0.504-0.348,0.911-0.801,1.224-1.358
		c0.317-0.557,0.476-1.241,0.476-2.049c0-0.727-0.158-1.348-0.476-1.867c-0.313-0.518-0.72-0.941-1.224-1.271
		c-0.501-0.332-1.068-0.574-1.71-0.728c-0.636-0.154-1.279-0.229-1.925-0.229C486.771,171.414,486.131,171.489,485.492,171.643z"/>
</g>
<linearGradient id="SVGID_11_" gradientUnits="userSpaceOnUse" x1="296.4927" y1="465.6855" x2="296.4927" y2="169.0005">
	<stop  offset="0" style="stop-color:#F2C982"/>
	<stop  offset="0.2822" style="stop-color:#F2CF98"/>
	<stop  offset="0.5276" style="stop-color:#FFE69A"/>
	<stop  offset="0.7423" style="stop-color:#FFF1C9"/>
</linearGradient>
<path fill="url(#SVGID_11_)" d="M182.123,169c-30.493,0-52.273,14.234-58.497,34.148c-12.447,41.694,21.781,71.526,46.673,79.863
	c24.893,8.337,60.986,19.025,81.522,33.275c20.535,14.248,15.877,42.776-3.734,59.794c-27.228,23.629-104.809,7.05-104.809,7.05
	c11.823,9.955,21.419,15.347,37.6,19.702c57.874,16.804,103.302-13.068,103.302-59.518c0-46.449-58.497-61.834-90.857-72.191
	c-32.36-10.357-51.03-22.003-51.03-52.496c0-30.493,49.94-29.644,49.94-29.644l141.053-1.243
	c-29.87,22.341-40.012,48.637-43.976,56.836c-14.055,29.066-5.734,83.141,1.341,97.208c28.528,56.709,82.049,62.104,82.049,62.104
	l69.282,0.413c-39.826,25.309-86.861,43.335-141.769,43.335c-93.424,0.175-170.99-63.476-170.99-63.476
	c-1.866,3.112-4.202,15.164,2.67,21.415c21.158,16.802,72.57,60.109,167.783,60.109c95.215,0,172.32-61.61,172.32-61.61V169
	C472,169,212.616,169,182.123,169z M453,384h-70.494c0,0-82.145-5.852-82.145-92.688c0-86.835,69.699-103.313,82.145-103.313
	c12.448,0,70.494,0,70.494,0V384z"/>
<g>
	<path fill="#1D1912" d="M82.093,499.331v119.101h72.621v10.527H69.748V499.331H82.093z"/>
	<path fill="#1D1912" d="M180.674,602.997c2.18,4.482,5.177,8.053,8.988,10.713c3.812,2.664,8.32,4.567,13.525,5.721
		c5.202,1.151,10.771,1.724,16.703,1.724c3.388,0,7.08-0.481,11.076-1.453c3.994-0.968,7.715-2.51,11.167-4.629
		c3.448-2.115,6.322-4.841,8.624-8.169c2.298-3.329,3.447-7.354,3.447-12.074c0-3.634-0.817-6.776-2.451-9.44
		c-1.634-2.661-3.753-4.903-6.352-6.72c-2.607-1.815-5.48-3.295-8.626-4.448c-3.148-1.146-6.234-2.084-9.259-2.813l-28.866-7.082
		c-3.754-0.968-7.417-2.179-10.983-3.63c-3.572-1.45-6.69-3.39-9.353-5.811c-2.663-2.418-4.81-5.385-6.445-8.896
		c-1.633-3.507-2.45-7.806-2.45-12.892c0-3.146,0.604-6.837,1.814-11.072c1.208-4.236,3.479-8.229,6.809-11.982
		c3.329-3.754,7.899-6.93,13.709-9.535c5.81-2.6,13.252-3.901,22.329-3.901c6.416,0,12.528,0.847,18.338,2.542
		c5.809,1.695,10.894,4.237,15.25,7.626c4.36,3.386,7.836,7.598,10.44,12.616c2.603,5.024,3.903,10.864,3.903,17.522h-12.346
		c-0.243-4.966-1.359-9.289-3.357-12.982c-1.999-3.693-4.602-6.776-7.809-9.261c-3.206-2.479-6.897-4.356-11.074-5.628
		c-4.175-1.27-8.564-1.904-13.161-1.904c-4.24,0-8.326,0.454-12.256,1.36c-3.935,0.907-7.384,2.359-10.35,4.356
		c-2.967,1.998-5.355,4.631-7.171,7.899c-1.815,3.267-2.724,7.323-2.724,12.162c0,3.027,0.515,5.663,1.544,7.9
		c1.026,2.239,2.451,4.146,4.265,5.717c1.815,1.575,3.903,2.845,6.265,3.816c2.359,0.968,4.869,1.753,7.533,2.358l31.592,7.804
		c4.598,1.212,8.925,2.696,12.98,4.449c4.055,1.756,7.625,3.938,10.712,6.536c3.087,2.604,5.506,5.781,7.262,9.534
		c1.754,3.751,2.632,8.29,2.632,13.615c0,1.453-0.152,3.39-0.452,5.81c-0.305,2.424-1.03,4.992-2.18,7.714
		c-1.152,2.724-2.784,5.479-4.9,8.262c-2.12,2.787-5.024,5.297-8.716,7.536c-3.693,2.241-8.261,4.055-13.707,5.445
		c-5.447,1.389-11.983,2.088-19.609,2.088c-7.624,0-14.704-0.878-21.241-2.633c-6.537-1.755-12.105-4.449-16.704-8.079
		c-4.601-3.632-8.14-8.291-10.621-13.979c-2.481-5.689-3.54-12.527-3.179-20.518h12.348
		C177.466,592.952,178.498,598.522,180.674,602.997z"/>
	<path fill="#1D1912" d="M335.538,499.331c19.726,0.485,34.585,6.021,44.569,16.612c9.988,10.593,14.98,26.66,14.98,48.203
		c0,21.544-4.992,37.614-14.98,48.203c-9.984,10.593-24.844,16.13-44.569,16.609h-44.844V499.331H335.538z M329.368,618.432
		c9.315,0,17.338-0.999,24.055-2.995c6.716-1.997,12.257-5.176,16.61-9.533c4.355-4.355,7.566-9.983,9.625-16.886
		c2.055-6.897,3.087-15.187,3.087-24.871s-1.032-17.974-3.087-24.876c-2.059-6.896-5.27-12.524-9.625-16.885
		c-4.354-4.356-9.895-7.532-16.61-9.53c-6.717-1.997-14.739-2.996-24.055-2.996h-26.33v108.572H329.368z"/>
	<path fill="#1D1912" d="M509.015,525.203c-2.482-3.93-5.511-7.23-9.074-9.896c-3.576-2.662-7.511-4.689-11.805-6.081
		c-4.3-1.39-8.805-2.088-13.524-2.088c-8.602,0-15.98,1.635-22.15,4.899c-6.173,3.27-11.229,7.599-15.162,12.983
		s-6.839,11.469-8.715,18.245c-1.877,6.781-2.815,13.74-2.815,20.88c0,7.021,0.938,13.949,2.815,20.789
		c1.876,6.838,4.781,12.95,8.715,18.333c3.934,5.389,8.989,9.717,15.162,12.983c6.17,3.269,13.549,4.902,22.15,4.902
		c6.051,0,11.497-1.092,16.34-3.271c4.838-2.175,9.014-5.142,12.523-8.896c3.511-3.75,6.357-8.141,8.534-13.161
		c2.178-5.022,3.57-10.438,4.18-16.25h12.343c-0.846,7.989-2.728,15.19-5.627,21.606c-2.906,6.416-6.656,11.864-11.259,16.339
		c-4.6,4.478-10.016,7.929-16.248,10.35c-6.234,2.417-13.162,3.63-20.786,3.63c-10.168,0-19.096-1.848-26.782-5.537
		s-14.07-8.624-19.154-14.797c-5.084-6.171-8.895-13.313-11.436-21.424c-2.544-8.106-3.816-16.638-3.816-25.598
		c0-8.956,1.272-17.49,3.816-25.597c2.541-8.112,6.352-15.282,11.436-21.517s11.468-11.197,19.154-14.888
		c7.687-3.692,16.614-5.538,26.782-5.538c6.173,0,12.189,0.907,18.063,2.724c5.869,1.816,11.195,4.511,15.979,8.078
		c4.778,3.573,8.773,7.96,11.979,13.164c3.209,5.205,5.235,11.195,6.086,17.977H514.37
		C513.282,533.586,511.495,529.138,509.015,525.203z"/>
</g>
<g>
	<linearGradient id="SVGID_12_" gradientUnits="userSpaceOnUse" x1="109.1909" y1="726.3848" x2="109.1909" y2="230.2783">
		<stop  offset="0.1166" style="stop-color:#F2C982"/>
		<stop  offset="0.184" style="stop-color:#F2CF95"/>
		<stop  offset="0.3006" style="stop-color:#FCE399"/>
		<stop  offset="0.3804" style="stop-color:#FFF1C9"/>
	</linearGradient>
	<path fill="url(#SVGID_12_)" d="M79.052,497.677v119.1h72.623v10.53H66.708v-129.63H79.052z"/>
	<linearGradient id="SVGID_13_" gradientUnits="userSpaceOnUse" x1="212.8218" y1="715.0801" x2="212.8218" y2="216.2469">
		<stop  offset="0.1166" style="stop-color:#F2C982"/>
		<stop  offset="0.184" style="stop-color:#F2CF95"/>
		<stop  offset="0.3006" style="stop-color:#FCE399"/>
		<stop  offset="0.3804" style="stop-color:#FFF1C9"/>
	</linearGradient>
	<path fill="url(#SVGID_13_)" d="M177.635,601.342c2.179,4.482,5.174,8.056,8.988,10.715c3.813,2.663,8.318,4.568,13.524,5.722
		c5.203,1.148,10.772,1.72,16.704,1.72c3.387,0,7.079-0.479,11.074-1.449c3.995-0.968,7.715-2.511,11.166-4.631
		c3.449-2.116,6.324-4.843,8.624-8.17c2.298-3.327,3.449-7.354,3.449-12.073c0-3.631-0.815-6.777-2.45-9.439
		c-1.634-2.662-3.753-4.904-6.355-6.719c-2.604-1.814-5.478-3.297-8.624-4.448c-3.148-1.149-6.234-2.088-9.259-2.813l-28.868-7.082
		c-3.752-0.967-7.416-2.18-10.984-3.631c-3.571-1.451-6.688-3.386-9.351-5.812c-2.662-2.416-4.812-5.383-6.444-8.892
		c-1.635-3.514-2.452-7.812-2.452-12.894c0-3.146,0.604-6.838,1.816-11.072c1.209-4.235,3.478-8.231,6.808-11.983
		c3.328-3.755,7.898-6.928,13.707-9.533c5.811-2.601,13.254-3.903,22.331-3.903c6.416,0,12.528,0.85,18.339,2.544
		c5.808,1.696,10.893,4.236,15.25,7.623c4.357,3.39,7.837,7.599,10.44,12.618c2.6,5.024,3.904,10.863,3.904,17.521h-12.345
		c-0.244-4.963-1.362-9.289-3.359-12.979c-1.999-3.695-4.601-6.78-7.807-9.263c-3.21-2.478-6.899-4.356-11.077-5.626
		c-4.175-1.272-8.564-1.906-13.16-1.906c-4.24,0-8.324,0.452-12.256,1.358c-3.935,0.91-7.385,2.359-10.349,4.357
		c-2.967,1.999-5.355,4.63-7.171,7.898c-1.815,3.268-2.723,7.325-2.723,12.162c0,3.029,0.514,5.662,1.543,7.899
		c1.027,2.24,2.451,4.15,4.268,5.72c1.814,1.574,3.903,2.845,6.264,3.813c2.358,0.972,4.87,1.756,7.533,2.359l31.592,7.806
		c4.598,1.214,8.923,2.694,12.982,4.451c4.053,1.754,7.624,3.933,10.711,6.532c3.087,2.606,5.505,5.784,7.263,9.534
		c1.752,3.753,2.632,8.292,2.632,13.615c0,1.454-0.153,3.39-0.455,5.811c-0.302,2.425-1.03,4.995-2.177,7.715
		c-1.154,2.723-2.787,5.479-4.902,8.261c-2.12,2.787-5.025,5.297-8.715,7.535c-3.694,2.242-8.261,4.056-13.708,5.446
		c-5.448,1.392-11.982,2.088-19.609,2.088c-7.625,0-14.707-0.878-21.241-2.632c-6.537-1.754-12.106-4.448-16.704-8.082
		c-4.602-3.627-8.143-8.287-10.621-13.977c-2.483-5.691-3.542-12.525-3.178-20.515h12.346
		C174.425,591.3,175.457,596.867,177.635,601.342z"/>
	<linearGradient id="SVGID_14_" gradientUnits="userSpaceOnUse" x1="339.8516" y1="702.6523" x2="339.8515" y2="217.7601">
		<stop  offset="0.1166" style="stop-color:#F2C982"/>
		<stop  offset="0.184" style="stop-color:#F2CF95"/>
		<stop  offset="0.3006" style="stop-color:#FCE399"/>
		<stop  offset="0.3804" style="stop-color:#FFF1C9"/>
	</linearGradient>
	<path fill="url(#SVGID_14_)" d="M332.503,497.677c19.727,0.484,34.582,6.022,44.566,16.613
		c9.986,10.591,14.981,26.657,14.981,48.204c0,21.541-4.995,37.61-14.981,48.2c-9.984,10.594-24.84,16.133-44.566,16.612h-44.85
		v-129.63H332.503z M326.326,616.776c9.319,0,17.341-0.998,24.055-2.994c6.72-1.997,12.26-5.176,16.613-9.533
		c4.36-4.355,7.564-9.982,9.623-16.883c2.059-6.901,3.086-15.189,3.086-24.872c0-9.684-1.027-17.979-3.086-24.875
		c-2.059-6.9-5.263-12.527-9.623-16.886c-4.354-4.359-9.894-7.533-16.613-9.532c-6.714-1.998-14.735-2.994-24.055-2.994h-26.325
		v108.569H326.326z"/>
	<linearGradient id="SVGID_15_" gradientUnits="userSpaceOnUse" x1="467.9385" y1="692.5195" x2="467.9384" y2="194.2866">
		<stop  offset="0.1166" style="stop-color:#F2C982"/>
		<stop  offset="0.184" style="stop-color:#F2CF95"/>
		<stop  offset="0.3006" style="stop-color:#FCE399"/>
		<stop  offset="0.3804" style="stop-color:#FFF1C9"/>
	</linearGradient>
	<path fill="url(#SVGID_15_)" d="M505.978,523.548c-2.485-3.93-5.511-7.23-9.079-9.895c-3.573-2.662-7.506-4.69-11.802-6.082
		c-4.3-1.389-8.808-2.086-13.523-2.086c-8.598,0-15.978,1.633-22.15,4.899c-6.175,3.269-11.229,7.598-15.163,12.982
		c-3.933,5.387-6.839,11.47-8.715,18.245c-1.877,6.78-2.811,13.738-2.811,20.882c0,7.018,0.934,13.947,2.811,20.786
		c1.876,6.839,4.782,12.949,8.715,18.336c3.935,5.389,8.988,9.712,15.163,12.98c6.173,3.269,13.553,4.901,22.15,4.901
		c6.047,0,11.498-1.09,16.336-3.269c4.841-2.178,9.018-5.141,12.528-8.896c3.506-3.749,6.354-8.137,8.532-13.161
		c2.183-5.021,3.568-10.438,4.177-16.248h12.348c-0.851,7.986-2.727,15.188-5.629,21.604c-2.905,6.416-6.658,11.863-11.257,16.343
		c-4.603,4.477-10.018,7.926-16.248,10.346c-6.235,2.421-13.163,3.631-20.787,3.631c-10.168,0-19.096-1.846-26.782-5.536
		s-14.069-8.622-19.154-14.795c-5.081-6.175-8.897-13.316-11.439-21.425c-2.539-8.11-3.814-16.642-3.814-25.598
		c0-8.957,1.275-17.492,3.814-25.602c2.542-8.108,6.358-15.277,11.439-21.514c5.085-6.233,11.468-11.196,19.154-14.889
		c7.687-3.689,16.614-5.537,26.782-5.537c6.17,0,12.188,0.908,18.061,2.724c5.87,1.814,11.193,4.511,15.978,8.079
		c4.78,3.574,8.775,7.961,11.985,13.164c3.204,5.204,5.232,11.194,6.08,17.973h-12.344
		C510.24,531.931,508.455,527.482,505.978,523.548z"/>
</g>
</svg>
